<svg xmlns="http://www.w3.org/2000/svg" viewBox="0 0 48 48" width="48" height="48">
 <defs>
  <linearGradient id="gviolet" x1="0" y1="0" x2="1" y2="1"><stop offset="0" stop-color="#4c1d95"/><stop offset="1" stop-color="#7c3aed"/></linearGradient>
  <linearGradient id="hviolet" x1="0" y1="0" x2="0" y2="1"><stop offset="0" stop-color="#fff" stop-opacity=".18"/><stop offset=".5" stop-color="#fff" stop-opacity="0"/></linearGradient>
 </defs>
 <path d="M24 3.2 C24 3.2 32.5 8 39.6 8.6 C40.2 8.65 40.6 9.1 40.6 9.7 V22 C40.6 32.6 33.8 39.9 24.7 43.6 C24.25 43.8 23.75 43.8 23.3 43.6 C14.2 39.9 7.4 32.6 7.4 22 V9.7 C7.4 9.1 7.8 8.65 8.4 8.6 C15.5 8 24 3.2 24 3.2 Z" fill="url(#gviolet)"/>
 <path d="M24 3.2 C24 3.2 32.5 8 39.6 8.6 C40.2 8.65 40.6 9.1 40.6 9.7 V22 C40.6 32.6 33.8 39.9 24.7 43.6 C24.25 43.8 23.75 43.8 23.3 43.6 C14.2 39.9 7.4 32.6 7.4 22 V9.7 C7.4 9.1 7.8 8.65 8.4 8.6 C15.5 8 24 3.2 24 3.2 Z" fill="url(#hviolet)"/>
 <path d="M24 6.4 C24 6.4 31.6 10.6 37.9 11.2 V22 C37.9 31 32 37.5 24 40.9 C16 37.5 10.1 31 10.1 22 V11.2 C16.4 10.6 24 6.4 24 6.4 Z" fill="none" stroke="#fff" stroke-opacity=".22" stroke-width="1.1"/>
 <circle cx="18.7" cy="16.2" r="2.35" fill="#F2A23C"/><rect x="23.5" y="13.85" width="8.7" height="4.8" rx="2.4" fill="#F2A23C"/><circle cx="18.5" cy="23.7" r="2.95" fill="#3B7DD8"/><circle cx="26" cy="23.7" r="2.95" fill="#3B7DD8"/><circle cx="22.25" cy="30.9" r="2.95" fill="#54AE5A"/>
</svg>
